<svg width="360" height="576" viewBox="0 0 360 576" fill="none" xmlns="http://www.w3.org/2000/svg">
<path fill-rule="evenodd" clip-rule="evenodd" d="M180 0C279.411 0 360 80.5887 360 180V396C360 495.411 279.411 576 180 576C80.5887 576 0 495.411 0 396V180C0 80.5887 80.5887 0 180 0Z" fill="url(#paint0_linear_1_57)"/>
<mask id="mask0_1_57" style="mask-type:luminance" maskUnits="userSpaceOnUse" x="0" y="0" width="360" height="576">
<path fill-rule="evenodd" clip-rule="evenodd" d="M180 0C279.411 0 360 80.5887 360 180V396C360 495.411 279.411 576 180 576C80.5887 576 0 495.411 0 396V180C0 80.5887 80.5887 0 180 0Z" fill="white"/>
</mask>
<g mask="url(#mask0_1_57)">
<path fill-rule="evenodd" clip-rule="evenodd" d="M180 236C208.719 236 232 212.719 232 184C232 155.281 208.719 132 180 132C151.281 132 128 155.281 128 184C128 212.719 151.281 236 180 236Z" fill="#FEF1AB"/>
<path fill-rule="evenodd" clip-rule="evenodd" d="M-168.002 280.932L-168 360H-144.012L-143.994 309.922C-153.366 301.534 -161.476 291.764 -168.002 280.932ZM-131.997 319.418L-132.012 360H-105.012L-104.997 333.728C-114.619 330.048 -123.675 325.222 -131.997 319.418ZM-92.9949 337.636L-93 360H-66L-66.0096 341.859C-75.3036 341.423 -84.3343 339.979 -92.9949 337.636ZM-53.9785 341.859L-54 360H-27L-26.993 337.633C-35.6536 339.977 -44.6843 341.421 -53.9785 341.859ZM-14.9909 333.723L-15 360H12L12.0087 319.41C5.07382 324.248 -2.37054 328.406 -10.2278 331.788L-14.9909 333.723ZM24.0059 309.911L24 360H48L48.0098 280.92C42.3007 290.398 35.3793 299.064 27.4602 306.701L24.0059 309.911ZM311.998 280.932L312 360H336L336.006 309.922C326.634 301.534 318.524 291.764 311.998 280.932ZM348.003 319.418L348 360H375L375.003 333.728C365.381 330.048 356.325 325.222 348.003 319.418ZM387.005 337.636L387 360H414L413.99 341.859C404.696 341.423 395.666 339.979 387.005 337.636ZM426.022 341.859L426 360H453L453.007 337.633C444.346 339.977 435.316 341.421 426.022 341.859ZM465.009 333.723L465 360H492L492.009 319.41C483.687 325.215 474.631 330.042 465.009 333.723ZM504.006 309.911L504 360H528L528.01 280.92C521.485 291.752 513.377 301.523 504.006 309.911ZM71.9976 280.932L72.0002 360H96.0002L96.0063 309.922C86.6335 301.534 78.5238 291.764 71.9976 280.932ZM108.003 319.418L108 360H135L135.003 333.728C125.381 330.048 116.325 325.222 108.003 319.418ZM147.005 337.636L147 360H174L173.99 341.859C164.696 341.423 155.666 339.979 147.005 337.636ZM186.022 341.859L186 360H213L213.007 337.633C204.346 339.977 195.316 341.421 186.022 341.859ZM225.009 333.723L225 360H252L252.009 319.41C243.687 325.215 234.631 330.042 225.009 333.723ZM264.006 309.911L264 360H288L288.01 280.92C281.485 291.752 273.377 301.523 264.006 309.911ZM52 200H68V216H72L72.0003 252.594C87.2462 297.604 129.84 330 180 330C230.173 330 272.776 297.587 288.012 252.558L288 216H292V200H308V216H312L312 252.594C327.246 297.604 369.84 330 420 330C470.173 330 512.776 297.587 528.012 252.558L528 216H552V456H528V384H312V456H288V384H72V456H48V384H-168V456H-192V216H-168L-168 252.594C-152.754 297.604 -110.16 330 -60 330C-9.82658 330 32.7764 297.587 48.0119 252.558L48 216H52V200Z" fill="#F96976"/>
<path fill-rule="evenodd" clip-rule="evenodd" d="M12 456H108V468H12V456ZM132 456H228V468H132V456ZM348 456H252V468H348V456Z" fill="#47A2C6"/>
<path fill-rule="evenodd" clip-rule="evenodd" d="M138.256 112.001C138.909 112.822 140.556 115.672 139.81 117.803C139.313 119.223 137.958 119.956 135.744 120H-41.5914C-44.378 119.905 -46.2214 119.111 -47.1214 117.616C-48.4716 115.375 -48.2169 113.527 -46.6914 110.637L-46.5679 110.42C-44.4391 106.902 -28.3592 86.3248 -4.35804 84.6371C13.4162 83.3873 16.9604 90.8762 18.8721 94.9159C19.6005 96.4551 20.0919 97.4935 21.0432 97.357C21.7628 97.2538 23.7939 96.1539 26.7497 94.5532C37.9572 88.4838 62.4594 75.2149 79.1718 81.7791C94.7492 87.8974 94.4278 98.46 94.2547 104.151C94.193 106.176 94.1502 107.584 94.849 107.956C95.8344 108.48 97.941 107.529 100.835 106.223C105.761 104.001 112.968 100.748 120.81 101.988C128.037 103.131 133.852 106.468 138.256 112.001ZM225.954 259.906C225.263 260.771 223.182 263.549 224.348 265.874C225.125 267.425 226.687 268.127 229.034 267.981H397.719C400.728 267.851 402.693 266.819 403.614 264.883C404.996 261.98 402.553 254.716 398.088 249.13L397.867 248.854C393.309 243.145 383.693 231.102 365.271 228.354C351.429 226.29 338.995 233.736 331.759 238.07C329.206 239.599 327.3 240.74 326.207 240.94C324.93 241.174 322.418 240.32 319.141 239.206C311.665 236.663 300.202 232.764 290.31 237.337C280.382 241.925 276.709 248.299 274.439 252.239C273.455 253.946 272.735 255.196 271.884 255.646C270.841 256.198 268.612 255.197 265.55 253.822C260.338 251.481 252.711 248.056 244.414 249.362C236.767 250.565 230.614 254.08 225.954 259.906Z" fill="white"/>
</g>
<defs>
<linearGradient id="paint0_linear_1_57" x1="0" y1="0" x2="0" y2="576" gradientUnits="userSpaceOnUse">
<stop stop-color="#F5DCD0"/>
<stop offset="1" stop-color="#60CCEC"/>
</linearGradient>
</defs>
</svg>
