<svg width="360" height="576" viewBox="0 0 360 576" fill="none" xmlns="http://www.w3.org/2000/svg">
<path fill-rule="evenodd" clip-rule="evenodd" d="M180 0C279.411 0 360 80.5887 360 180V396C360 495.411 279.411 576 180 576C80.5887 576 0 495.411 0 396V180C0 80.5887 80.5887 0 180 0Z" fill="url(#paint0_linear_1_36)"/>
<mask id="mask0_1_36" style="mask-type:luminance" maskUnits="userSpaceOnUse" x="0" y="0" width="360" height="576">
<path fill-rule="evenodd" clip-rule="evenodd" d="M180 0C279.411 0 360 80.5887 360 180V396C360 495.411 279.411 576 180 576C80.5887 576 0 495.411 0 396V180C0 80.5887 80.5887 0 180 0Z" fill="white"/>
</mask>
<g mask="url(#mask0_1_36)">
<path opacity="0.4" fill-rule="evenodd" clip-rule="evenodd" d="M95.3084 352.92L-13.6001 382.148V358.185C-13.6001 358.185 4.19189 366.167 15.1101 363.888C26.0283 361.608 29.5067 349.828 43.1569 346.559C55.7175 343.552 70.5707 350.984 92.8033 351.435L95.3084 352.92Z" fill="#0053A6" fill-opacity="0.4"/>
<path fill-rule="evenodd" clip-rule="evenodd" d="M149.613 323.191L175.127 316.332C195.881 310.751 200.221 324.854 200.221 324.854L153.932 337.244L132.318 371.656L121.401 374.205L128.279 344.111L89.1154 354.594L73.1611 334.894C73.1611 334.894 76.1977 333.715 80.7267 334.226C85.2556 334.736 90.9551 338.96 90.9551 338.96L124.895 329.836L103.907 307.865L115.073 304.8L149.613 323.191Z" fill="#0053A6" fill-opacity="0.3"/>
<path opacity="0.4" fill-rule="evenodd" clip-rule="evenodd" d="M126.677 253.269L-24 294.749V260.741C-24 260.741 -4.19688 274.468 15.721 268.834C35.6389 263.2 35.6389 248.881 54.5241 244.242C71.9019 239.974 93.3708 254.265 123.211 251.162L126.677 253.269Z" fill="white"/>
<path fill-rule="evenodd" clip-rule="evenodd" d="M144.322 184.571L177.905 219.727L216.035 209.316L160.975 180L144.322 184.571Z" fill="#CBDCEB"/>
<path fill-rule="evenodd" clip-rule="evenodd" d="M98.4661 224.883L122.261 254.265L287.97 209.909C287.97 209.909 281.496 188.875 250.543 197.199L125.005 230.947C125.005 230.947 116.504 224.648 109.75 223.887C102.995 223.126 98.4661 224.883 98.4661 224.883Z" fill="white"/>
<path fill-rule="evenodd" clip-rule="evenodd" d="M183.381 231.699L170.414 288.44L186.696 284.638L227.467 219.727L183.381 231.699Z" fill="url(#paint1_linear_1_36)"/>
<path fill-rule="evenodd" clip-rule="evenodd" d="M216.409 134.46C216.153 135.042 215.497 137.754 216.704 139.124C217.91 140.494 220.459 139.722 220.459 139.722L312.814 112.757C312.814 112.757 315.535 112.001 315.925 110.037C316.315 108.072 315.115 106.782 313.965 105.644C306.135 97.8914 297.708 94.8128 288.683 96.4086C277.431 98.3984 272.396 104.177 269.673 107.302C268.64 108.488 267.94 109.291 267.359 109.36C266.903 109.414 266.103 109.32 265.06 109.196C261.282 108.748 254.306 107.922 248.869 112.429C244.027 116.442 242.937 120.519 242.263 123.039C241.971 124.13 241.758 124.93 241.351 125.306C240.853 125.766 239.461 125.541 237.55 125.231C234.296 124.704 229.535 123.933 225.109 125.884C221.031 127.682 218.131 130.541 216.409 134.46ZM-23.5549 483.333C-24.4327 482.283 -23.7798 480.546 -23.5549 479.999C-22.04 476.315 -19.4885 473.628 -15.9004 471.937C-12.0068 470.103 -7.81812 470.828 -4.95525 471.324C-3.27343 471.615 -2.04915 471.827 -1.61104 471.394C-1.25326 471.041 -1.06521 470.289 -0.808477 469.263C-0.215702 466.894 0.74321 463.062 5.00294 459.29C9.24717 455.531 15.3781 455.97 19.377 456.256C21.1298 456.381 22.473 456.477 23.0681 456.178C23.5773 455.921 24.3606 455.062 25.4098 453.91C28.384 450.645 33.4943 445.036 40.5495 444.188C50.0932 443.04 56.2626 447.439 59.1874 449.73C62.1121 452.021 64.2671 455.467 63.9732 457.173C63.6792 458.878 61.493 459.607 61.493 459.607L-20.981 483.78C-20.981 483.78 -22.6771 484.383 -23.5549 483.333ZM220.37 523.269C219.668 522.227 220.139 520.451 220.37 519.914C221.931 516.291 224.559 513.649 228.254 511.988C232.264 510.184 236.578 510.897 239.527 511.384C241.259 511.671 242.52 511.879 242.971 511.453C243.291 511.152 243.067 510.398 242.744 509.314C241.837 506.268 240.155 500.615 247.598 495.06C255.583 489.101 270.566 492.718 277.419 494.373C279.226 494.809 280.468 495.109 280.867 495.06C281.395 494.997 281.509 494.365 281.677 493.429C282.12 490.973 282.941 486.419 292.612 484.523C305.967 481.904 317.394 489.903 318.622 491.242C319.85 492.581 320.251 493.542 319.85 494.946C319.45 496.351 317.238 497.032 317.238 497.032L222.856 523.867C222.856 523.867 221.073 524.311 220.37 523.269Z" fill="#0053A6" fill-opacity="0.2"/>
<path fill-rule="evenodd" clip-rule="evenodd" d="M224.555 88.7308C224.208 89.5285 223.317 93.2468 224.956 95.125C226.595 97.0032 230.059 95.945 230.059 95.945L355.538 58.9744C355.538 58.9744 359.234 57.9382 359.764 55.2449C360.294 52.5516 358.663 50.7831 357.102 49.223C346.463 38.5932 335.013 34.3723 322.752 36.5602C307.463 39.2883 300.623 47.2112 296.924 51.4951C295.52 53.1211 294.568 54.2228 293.78 54.3174C293.16 54.3917 292.073 54.2619 290.656 54.0925C285.522 53.4788 276.045 52.346 268.657 58.5249C262.079 64.0265 260.598 69.6163 259.683 73.0718C259.286 74.5684 258.996 75.6646 258.443 76.1799C257.767 76.811 255.876 76.5019 253.279 76.0773C248.858 75.3546 242.389 74.2972 236.376 76.9724C230.835 79.4376 226.895 83.3571 224.555 88.7308ZM-35.6183 445.477C-36.974 443.945 -35.9656 441.412 -35.6183 440.614C-33.2788 435.24 -29.3386 431.321 -23.7975 428.856C-17.7846 426.181 -11.316 427.238 -6.89486 427.961C-4.29764 428.385 -2.40701 428.694 -1.73044 428.063C-1.17792 427.548 -0.887508 426.452 -0.491043 424.955C0.424381 421.5 1.90523 415.91 8.48352 410.408C15.0379 404.927 24.5059 405.566 30.6813 405.983C33.3882 406.166 35.4625 406.306 36.3815 405.869C37.1679 405.495 38.3776 404.241 39.9977 402.562C44.5909 397.8 52.4827 389.618 63.3779 388.381C78.1163 386.708 87.6437 393.124 92.1604 396.465C96.6772 399.806 100.005 404.833 99.5511 407.32C99.0971 409.807 95.7211 410.871 95.7211 410.871L-31.6434 446.128C-31.6434 446.128 -34.2627 447.009 -35.6183 445.477ZM224.556 482.258C223.502 480.712 224.208 478.077 224.556 477.279C226.895 471.905 230.835 467.986 236.376 465.521C242.389 462.846 248.858 463.903 253.279 464.626C255.876 465.05 257.767 465.359 258.443 464.728C258.923 464.281 258.587 463.163 258.103 461.555C256.744 457.036 254.221 448.649 265.381 440.409C277.354 431.568 299.82 436.934 310.095 439.388C312.805 440.036 314.667 440.48 315.266 440.409C316.057 440.314 316.228 439.377 316.481 437.989C317.145 434.344 318.376 427.589 332.876 424.776C352.901 420.891 370.035 432.757 371.877 434.744C373.718 436.731 374.318 438.155 373.718 440.239C373.118 442.323 369.802 443.334 369.802 443.334L228.282 483.145C228.282 483.145 225.609 483.804 224.556 482.258Z" fill="white"/>
</g>
<defs>
<linearGradient id="paint0_linear_1_36" x1="8.01887" y1="25.6604" x2="8.01887" y2="576" gradientUnits="userSpaceOnUse">
<stop stop-color="#2D91E0"/>
<stop offset="1" stop-color="#68B4E8"/>
</linearGradient>
<linearGradient id="paint1_linear_1_36" x1="174.898" y1="213.215" x2="145.706" y2="267.04" gradientUnits="userSpaceOnUse">
<stop stop-color="#DBE5E8"/>
<stop offset="1" stop-color="#91D3FF"/>
</linearGradient>
</defs>
</svg>
